<svg width="261" height="260" viewBox="0 0 261 260" fill="none" xmlns="http://www.w3.org/2000/svg">
<circle cx="131.564" cy="38.0278" r="38.0278" fill="url(#paint0_linear)"/>
<g filter="url(#filter0_dd)">
<path fill-rule="evenodd" clip-rule="evenodd" d="M92.548 54.8367C89.4774 47.8726 83.3206 42 75.7095 42H16C10.4772 42 6 46.4772 6 52V238C6 246.284 12.7157 253 21 253H240C248.284 253 255 246.284 255 238V52C255 46.4772 250.523 42 245 42H187.896C180.285 42 174.128 47.8726 171.057 54.8367C164.307 70.147 149.27 80.8017 131.803 80.8017C114.336 80.8017 99.2986 70.147 92.548 54.8367Z" fill="url(#paint1_linear)"/>
</g>
<path d="M129.5 34.25C129.5 33.9185 129.632 33.6005 129.866 33.3661C130.101 33.1317 130.418 33 130.75 33H139.5C139.832 33 140.149 33.1317 140.384 33.3661C140.618 33.6005 140.75 33.9185 140.75 34.25C140.75 34.5815 140.618 34.8995 140.384 35.1339C140.149 35.3683 139.832 35.5 139.5 35.5H130.75C130.418 35.5 130.101 35.3683 129.866 35.1339C129.632 34.8995 129.5 34.5815 129.5 34.25ZM129.5 41.75C129.5 41.4185 129.632 41.1005 129.866 40.8661C130.101 40.6317 130.418 40.5 130.75 40.5H139.5C139.832 40.5 140.149 40.6317 140.384 40.8661C140.618 41.1005 140.75 41.4185 140.75 41.75C140.75 42.0815 140.618 42.3995 140.384 42.6339C140.149 42.8683 139.832 43 139.5 43H130.75C130.418 43 130.101 42.8683 129.866 42.6339C129.632 42.3995 129.5 42.0815 129.5 41.75ZM129.5 49.25C129.5 48.9185 129.632 48.6005 129.866 48.3661C130.101 48.1317 130.418 48 130.75 48H139.5C139.832 48 140.149 48.1317 140.384 48.3661C140.618 48.6005 140.75 48.9185 140.75 49.25C140.75 49.5815 140.618 49.8995 140.384 50.1339C140.149 50.3683 139.832 50.5 139.5 50.5H130.75C130.418 50.5 130.101 50.3683 129.866 50.1339C129.632 49.8995 129.5 49.5815 129.5 49.25ZM127 34.25C127 34.7473 126.802 35.2242 126.451 35.5758C126.099 35.9275 125.622 36.125 125.125 36.125C124.628 36.125 124.151 35.9275 123.799 35.5758C123.448 35.2242 123.25 34.7473 123.25 34.25C123.25 33.7527 123.448 33.2758 123.799 32.9242C124.151 32.5725 124.628 32.375 125.125 32.375C125.622 32.375 126.099 32.5725 126.451 32.9242C126.802 33.2758 127 33.7527 127 34.25ZM127 41.75C127 42.2473 126.802 42.7242 126.451 43.0758C126.099 43.4275 125.622 43.625 125.125 43.625C124.628 43.625 124.151 43.4275 123.799 43.0758C123.448 42.7242 123.25 42.2473 123.25 41.75C123.25 41.2527 123.448 40.7758 123.799 40.4242C124.151 40.0725 124.628 39.875 125.125 39.875C125.622 39.875 126.099 40.0725 126.451 40.4242C126.802 40.7758 127 41.2527 127 41.75ZM125.125 51.125C125.622 51.125 126.099 50.9275 126.451 50.5758C126.802 50.2242 127 49.7473 127 49.25C127 48.7527 126.802 48.2758 126.451 47.9242C126.099 47.5725 125.622 47.375 125.125 47.375C124.628 47.375 124.151 47.5725 123.799 47.9242C123.448 48.2758 123.25 48.7527 123.25 49.25C123.25 49.7473 123.448 50.2242 123.799 50.5758C124.151 50.9275 124.628 51.125 125.125 51.125ZM124.713 20.5C124.971 19.7686 125.45 19.1353 126.084 18.6876C126.717 18.2398 127.474 17.9996 128.25 18H135.75C136.526 17.9996 137.283 18.2398 137.916 18.6876C138.55 19.1353 139.029 19.7686 139.288 20.5H143.25C144.245 20.5 145.198 20.8951 145.902 21.5984C146.605 22.3016 147 23.2554 147 24.25V54.25C147 55.2446 146.605 56.1984 145.902 56.9016C145.198 57.6049 144.245 58 143.25 58H120.75C119.755 58 118.802 57.6049 118.098 56.9016C117.395 56.1984 117 55.2446 117 54.25V24.25C117 23.2554 117.395 22.3016 118.098 21.5984C118.802 20.8951 119.755 20.5 120.75 20.5H124.713ZM128.25 20.5C127.918 20.5 127.601 20.6317 127.366 20.8661C127.132 21.1005 127 21.4185 127 21.75C127 22.0815 127.132 22.3995 127.366 22.6339C127.601 22.8683 127.918 23 128.25 23H135.75C136.082 23 136.399 22.8683 136.634 22.6339C136.868 22.3995 137 22.0815 137 21.75C137 21.4185 136.868 21.1005 136.634 20.8661C136.399 20.6317 136.082 20.5 135.75 20.5H128.25ZM124.713 23H120.75C120.418 23 120.101 23.1317 119.866 23.3661C119.632 23.6005 119.5 23.9185 119.5 24.25V54.25C119.5 54.5815 119.632 54.8995 119.866 55.1339C120.101 55.3683 120.418 55.5 120.75 55.5H143.25C143.582 55.5 143.899 55.3683 144.134 55.1339C144.368 54.8995 144.5 54.5815 144.5 54.25V24.25C144.5 23.9185 144.368 23.6005 144.134 23.3661C143.899 23.1317 143.582 23 143.25 23H139.288C139.029 23.7314 138.55 24.3647 137.916 24.8124C137.283 25.2602 136.526 25.5004 135.75 25.5H128.25C127.474 25.5004 126.717 25.2602 126.084 24.8124C125.45 24.3647 124.971 23.7314 124.713 23Z" fill="black"/>
<defs>
<filter id="filter0_dd" x="0.0223699" y="36.5205" width="260.955" height="222.955" filterUnits="userSpaceOnUse" color-interpolation-filters="sRGB">
<feFlood flood-opacity="0" result="BackgroundImageFix"/>
<feColorMatrix in="SourceAlpha" type="matrix" values="0 0 0 0 0 0 0 0 0 0 0 0 0 0 0 0 0 0 127 0" result="hardAlpha"/>
<feOffset dy="0.498136"/>
<feGaussianBlur stdDeviation="2.98882"/>
<feColorMatrix type="matrix" values="0 0 0 0 0 0 0 0 0 0 0 0 0 0 0 0 0 0 0.08 0"/>
<feBlend mode="normal" in2="BackgroundImageFix" result="effect1_dropShadow"/>
<feColorMatrix in="SourceAlpha" type="matrix" values="0 0 0 0 0 0 0 0 0 0 0 0 0 0 0 0 0 0 127 0" result="hardAlpha"/>
<feOffset/>
<feGaussianBlur stdDeviation="0.249068"/>
<feColorMatrix type="matrix" values="0 0 0 0 0 0 0 0 0 0 0 0 0 0 0 0 0 0 0.08 0"/>
<feBlend mode="normal" in2="effect1_dropShadow" result="effect2_dropShadow"/>
<feBlend mode="normal" in="SourceGraphic" in2="effect2_dropShadow" result="shape"/>
</filter>
<linearGradient id="paint0_linear" x1="101.648" y1="69.8152" x2="220.292" y2="28.0416" gradientUnits="userSpaceOnUse">
<stop stop-color="#35CC79"/>
<stop offset="1" stop-color="#347D55" stop-opacity="0.65"/>
</linearGradient>
<linearGradient id="paint1_linear" x1="32.56" y1="235.687" x2="404.867" y2="80.9925" gradientUnits="userSpaceOnUse">
<stop stop-color="#35CC79"/>
<stop offset="1" stop-color="#347D55" stop-opacity="0.65"/>
</linearGradient>
</defs>
</svg>
