<svg width="260" height="260" viewBox="0 0 260 260" fill="none" xmlns="http://www.w3.org/2000/svg">
<circle cx="131.564" cy="38.0278" r="38.0278" fill="url(#paint0_linear)"/>
<g filter="url(#filter0_dd)">
<path fill-rule="evenodd" clip-rule="evenodd" d="M92.548 54.8367C89.4774 47.8726 83.3206 42 75.7095 42H16C10.4772 42 6 46.4772 6 52V238C6 246.284 12.7157 253 21 253H239C247.284 253 254 246.284 254 238V52C254 46.4772 249.523 42 244 42H187.896C180.285 42 174.128 47.8726 171.057 54.8367C164.307 70.147 149.27 80.8017 131.803 80.8017C114.336 80.8017 99.2986 70.147 92.548 54.8367Z" fill="url(#paint1_linear)"/>
</g>
<path d="M132.581 16.1901C132.208 16.0428 131.792 16.0428 131.419 16.1901L112.769 23.5385L132 31.1148L151.231 23.5385L132.581 16.1901ZM153.875 25.8136L133.562 33.8177V58.2057L153.875 50.2015V25.8166V25.8136ZM130.438 58.2088V33.8146L110.125 25.8136V50.2046L130.438 58.2088ZM130.259 13.3302C131.377 12.8899 132.623 12.8899 133.741 13.3302L156.019 22.1101C156.308 22.2245 156.557 22.4216 156.732 22.6762C156.906 22.9308 157 23.2311 157 23.5385V50.2046C157 50.8198 156.812 51.4207 156.462 51.9299C156.111 52.4391 155.614 52.8333 155.034 53.0615L132.581 61.9091C132.208 62.0564 131.792 62.0564 131.419 61.9091L108.969 53.0615C108.388 52.8338 107.89 52.4398 107.54 51.9306C107.189 51.4213 107.001 50.8201 107 50.2046V23.5385C107 23.2311 107.094 22.9308 107.268 22.6762C107.443 22.4216 107.692 22.2245 107.981 22.1101L130.259 13.3302Z" fill="black"/>
<defs>
<filter id="filter0_dd" x="0.0223699" y="36.5205" width="259.955" height="222.955" filterUnits="userSpaceOnUse" color-interpolation-filters="sRGB">
<feFlood flood-opacity="0" result="BackgroundImageFix"/>
<feColorMatrix in="SourceAlpha" type="matrix" values="0 0 0 0 0 0 0 0 0 0 0 0 0 0 0 0 0 0 127 0" result="hardAlpha"/>
<feOffset dy="0.498136"/>
<feGaussianBlur stdDeviation="2.98882"/>
<feColorMatrix type="matrix" values="0 0 0 0 0 0 0 0 0 0 0 0 0 0 0 0 0 0 0.08 0"/>
<feBlend mode="normal" in2="BackgroundImageFix" result="effect1_dropShadow"/>
<feColorMatrix in="SourceAlpha" type="matrix" values="0 0 0 0 0 0 0 0 0 0 0 0 0 0 0 0 0 0 127 0" result="hardAlpha"/>
<feOffset/>
<feGaussianBlur stdDeviation="0.249068"/>
<feColorMatrix type="matrix" values="0 0 0 0 0 0 0 0 0 0 0 0 0 0 0 0 0 0 0.08 0"/>
<feBlend mode="normal" in2="effect1_dropShadow" result="effect2_dropShadow"/>
<feBlend mode="normal" in="SourceGraphic" in2="effect2_dropShadow" result="shape"/>
</filter>
<linearGradient id="paint0_linear" x1="101.648" y1="69.8152" x2="220.292" y2="28.0416" gradientUnits="userSpaceOnUse">
<stop stop-color="#35CC79"/>
<stop offset="1" stop-color="#347D55" stop-opacity="0.65"/>
</linearGradient>
<linearGradient id="paint1_linear" x1="32.4533" y1="235.687" x2="403.703" y2="82.0512" gradientUnits="userSpaceOnUse">
<stop stop-color="#35CC79"/>
<stop offset="1" stop-color="#347D55" stop-opacity="0.65"/>
</linearGradient>
</defs>
</svg>
