<svg width="260" height="260" viewBox="0 0 260 260" fill="none" xmlns="http://www.w3.org/2000/svg">
<circle cx="131.564" cy="38.0278" r="38.0278" fill="url(#paint0_linear)"/>
<g filter="url(#filter0_dd)">
<path fill-rule="evenodd" clip-rule="evenodd" d="M92.548 54.8367C89.4774 47.8726 83.3206 42 75.7095 42H16C10.4772 42 6 46.4772 6 52V238C6 246.284 12.7157 253 21 253H239C247.284 253 254 246.284 254 238V52C254 46.4772 249.523 42 244 42H187.896C180.285 42 174.128 47.8726 171.057 54.8367C164.307 70.147 149.27 80.8017 131.803 80.8017C114.336 80.8017 99.2986 70.147 92.548 54.8367Z" fill="url(#paint1_linear)"/>
</g>
<g filter="url(#filter1_d)">
<path d="M134.273 27.7727C133.97 27.4697 133.515 27.4697 133.212 27.7727C132.53 28.4545 131.47 28.4545 130.788 27.7727C130.485 27.4697 130.03 27.4697 129.727 27.7727C129.424 28.0757 129.424 28.5303 129.727 28.8333C130.333 29.4394 131.167 29.7424 132 29.7424C132.833 29.7424 133.667 29.4394 134.273 28.8333C134.576 28.5303 134.576 28.0757 134.273 27.7727ZM134.424 25.803H135.788C136.242 25.803 136.545 25.5 136.545 25.0454C136.545 24.5909 136.242 24.2878 135.788 24.2878H134.424C133.97 24.2878 133.667 24.5909 133.667 25.0454C133.667 25.5 134.045 25.803 134.424 25.803ZM130.333 25.0454C130.333 24.5909 130.03 24.2878 129.576 24.2878H128.212C127.758 24.2878 127.455 24.5909 127.455 25.0454C127.455 25.5 127.758 25.803 128.212 25.803H129.576C129.955 25.803 130.333 25.4242 130.333 25.0454Z" fill="black"/>
<path d="M148.515 41.8636C147.833 41.4848 147.152 41.1818 146.47 40.9545V35.803C146.47 35.2727 146.167 34.8182 145.712 34.5151C145.258 34.2121 144.727 34.2121 144.197 34.4394L142.682 35.197C141.849 34.0606 140.485 33.303 139.045 33.303H136.545L135.636 31.9394C137.076 31.0303 138.288 29.5151 139.121 27.697C141.242 27.3182 141.849 23.5303 140.106 22.2424C139.879 17.1667 136.697 13.7576 132 13.7576C127.303 13.7576 124.121 17.1667 123.894 22.2424C122.152 23.5303 122.758 27.3182 124.879 27.697C125.712 29.5909 126.924 31.0303 128.364 31.9394L127.379 33.3788H124.879C123.439 33.3788 122.076 34.0606 121.242 35.2727L119.727 34.5151C119.273 34.2879 118.667 34.2879 118.212 34.5909C117.758 34.8939 117.455 35.3485 117.455 35.8788V41.0303C116.773 41.2576 116.091 41.6364 115.409 41.9394C114.652 42.3182 114.121 43.0758 114.121 43.9848V48.4545C114.121 49.2879 114.576 50.0454 115.409 50.5C116.015 50.803 116.697 51.1061 117.379 51.4091H117.455V54.1364C117.455 54.7424 117.758 55.197 118.288 55.5L131.621 62.3182C131.773 62.2424 131.924 62.2424 132 62.2424C132.076 62.2424 132.227 62.2424 132.303 62.1667L145.636 55.3485C146.167 55.1212 146.47 54.5909 146.47 53.9848V51.2576C147.152 51.0303 147.833 50.6515 148.515 50.3485C149.273 49.9697 149.803 49.2121 149.803 48.303V43.8333C149.803 43 149.349 42.2424 148.515 41.8636ZM132 15.2727C135.03 15.2727 137.227 16.9394 138.136 19.6667L137.682 19.0606C137.455 18.7576 137 18.6061 136.697 18.8333C133.591 20.803 130.485 20.803 127.379 18.8333C127.076 18.6061 126.621 18.6818 126.394 19.0606L125.939 19.6667C126.773 16.9394 128.97 15.2727 132 15.2727ZM126.167 26.6364C126.015 26.3333 125.788 26.1061 125.485 26.1061C125.409 26.1061 125.409 26.1061 125.333 26.1061H125.258C125.03 26.1061 124.576 25.6515 124.5 24.8182C124.424 23.9848 124.727 23.4545 124.955 23.3788C125.182 23.303 125.258 23.2273 125.409 23L127.227 20.4242C130.485 22.2424 133.742 22.2424 136.924 20.4242L138.742 23C138.818 23.1515 138.97 23.303 139.197 23.3788C139.424 23.4545 139.727 23.9848 139.652 24.8182C139.576 25.6515 139.121 26.1061 138.894 26.1061C138.515 26.0303 138.136 26.2576 137.985 26.5606C136.849 29.5909 134.576 31.4091 132.152 31.4091C129.727 31.4091 127.303 29.6667 126.167 26.6364ZM132 33.0758C132.758 33.0758 133.515 32.9242 134.273 32.697L135.409 34.3636C135.106 35.3485 134.197 36.8636 132 37.4697C129.803 36.8636 128.818 35.3485 128.591 34.3636L129.727 32.697C130.485 32.9242 131.242 33.0758 132 33.0758ZM124.879 34.8939H127.152C127.606 36.2576 128.894 38.2273 131.697 38.9848H131.773C131.849 38.9848 131.924 38.9848 131.924 38.9848C132 38.9848 132.076 38.9848 132.076 38.9848C134.955 38.2273 136.242 36.3333 136.697 34.8939H138.97C139.879 34.8939 140.712 35.2727 141.242 35.9545L132 40.7273L122.606 35.9545C123.136 35.2727 123.97 34.8939 124.879 34.8939ZM116.167 48.9848C115.939 48.8333 115.712 48.6061 115.712 48.303V43.8333C115.712 43.5303 115.864 43.303 116.167 43.1515C117.833 42.3182 118.894 41.9394 119.955 41.8636H120.03C120.561 41.8636 120.939 42.2424 120.939 42.7727C120.939 43.303 120.485 43.6818 120.03 43.6818H119.955H119.879L118.061 44.0606C117.682 44.1364 117.379 44.5151 117.455 44.9697C117.53 45.3485 117.833 45.5758 118.212 45.5758C118.288 45.5758 118.288 45.5758 118.364 45.5758L120.03 45.197C120.561 45.197 120.939 45.5757 120.939 46.0303C120.939 46.4848 120.561 46.8636 120.03 46.9394L118.364 46.6364C117.985 46.5606 117.53 46.7879 117.455 47.2424C117.379 47.6212 117.606 48.0758 118.061 48.1515L119.879 48.5303C119.955 48.5303 119.955 48.5303 120.03 48.5303C120.333 48.5303 120.561 48.6061 120.712 48.8333C120.864 48.9848 120.939 49.2121 120.939 49.4394C120.939 49.8939 120.409 50.2727 119.879 50.2727V51.0303L119.803 50.2727C119.197 50.2727 118.591 50.1212 117.909 49.8182C117.455 49.6667 116.924 49.4394 116.167 48.9848ZM119.045 51.7121C119.349 51.7879 119.576 51.7879 119.879 51.7879H119.955C121.318 51.7879 122.455 50.803 122.53 49.5151C122.606 48.8333 122.379 48.2273 121.924 47.7727C122.303 47.3182 122.606 46.7879 122.606 46.1061C122.606 45.5 122.379 44.8939 121.924 44.4394C122.303 43.9848 122.606 43.4545 122.606 42.7727C122.606 41.4848 121.545 40.4242 120.258 40.3485H120.182C119.803 40.3485 119.5 40.3485 119.197 40.4242V35.6515L131.242 42.0151V60.197L119.045 53.9848V51.7121ZM144.955 53.9848L132.758 60.2727V42.0909L142.758 36.9394L144.955 35.803V40.5758C144.652 40.5 144.273 40.5 143.97 40.5C143.894 40.5 143.894 40.5 143.894 40.5C142.606 40.5757 141.545 41.6364 141.545 42.9242C141.545 43.5303 141.773 44.1364 142.227 44.5909C141.849 45.0454 141.545 45.5758 141.545 46.2576C141.545 46.8636 141.773 47.4697 142.227 47.9242C141.773 48.3788 141.545 49.0606 141.621 49.6667C141.697 50.9545 142.833 51.9394 144.197 51.9394H144.273C145.788 51.7121 144.424 51.7879 144.955 53.9848ZM148.288 48.3788C148.288 48.6818 148.136 48.9091 147.833 49.0606C146.697 49.6667 145.409 50.2727 144.121 50.3485C144.045 50.3485 143.97 50.3485 144.045 50.3485C143.515 50.3485 143.061 49.9697 142.985 49.5151C142.985 49.2879 143.061 49.0606 143.212 48.9091C143.364 48.6818 143.667 48.6061 143.894 48.6061C144.045 48.6061 144.045 48.6061 145.864 48.2273C146.242 48.1515 146.545 47.7727 146.47 47.3182C146.242 46.1818 144.727 47.0151 143.894 47.0909C143.364 47.0909 142.985 46.7121 142.985 46.1818C142.985 45.7273 143.364 45.3485 143.894 45.3485C144.652 45.4242 146.242 46.2576 146.47 45.1212C146.545 44.7424 146.318 44.2879 145.864 44.2121L144.121 43.7576H144.045H143.97C143.439 43.7576 143.061 43.3788 143.061 42.8485C143.061 42.3182 143.515 41.9394 143.97 41.9394H144.045C145.333 41.9394 146.697 42.6212 147.833 43.2273C148.061 43.3788 148.288 43.6061 148.288 43.9091V48.3788Z" fill="black"/>
</g>
<defs>
<filter id="filter0_dd" x="0.0223699" y="36.5205" width="259.955" height="222.955" filterUnits="userSpaceOnUse" color-interpolation-filters="sRGB">
<feFlood flood-opacity="0" result="BackgroundImageFix"/>
<feColorMatrix in="SourceAlpha" type="matrix" values="0 0 0 0 0 0 0 0 0 0 0 0 0 0 0 0 0 0 127 0" result="hardAlpha"/>
<feOffset dy="0.498136"/>
<feGaussianBlur stdDeviation="2.98882"/>
<feColorMatrix type="matrix" values="0 0 0 0 0 0 0 0 0 0 0 0 0 0 0 0 0 0 0.08 0"/>
<feBlend mode="normal" in2="BackgroundImageFix" result="effect1_dropShadow"/>
<feColorMatrix in="SourceAlpha" type="matrix" values="0 0 0 0 0 0 0 0 0 0 0 0 0 0 0 0 0 0 127 0" result="hardAlpha"/>
<feOffset/>
<feGaussianBlur stdDeviation="0.249068"/>
<feColorMatrix type="matrix" values="0 0 0 0 0 0 0 0 0 0 0 0 0 0 0 0 0 0 0.08 0"/>
<feBlend mode="normal" in2="effect1_dropShadow" result="effect2_dropShadow"/>
<feBlend mode="normal" in="SourceGraphic" in2="effect2_dropShadow" result="shape"/>
</filter>
<filter id="filter1_d" x="103" y="13" width="58" height="58" filterUnits="userSpaceOnUse" color-interpolation-filters="sRGB">
<feFlood flood-opacity="0" result="BackgroundImageFix"/>
<feColorMatrix in="SourceAlpha" type="matrix" values="0 0 0 0 0 0 0 0 0 0 0 0 0 0 0 0 0 0 127 0" result="hardAlpha"/>
<feOffset dy="4"/>
<feGaussianBlur stdDeviation="2"/>
<feColorMatrix type="matrix" values="0 0 0 0 0 0 0 0 0 0 0 0 0 0 0 0 0 0 0.05 0"/>
<feBlend mode="normal" in2="BackgroundImageFix" result="effect1_dropShadow"/>
<feBlend mode="normal" in="SourceGraphic" in2="effect1_dropShadow" result="shape"/>
</filter>
<linearGradient id="paint0_linear" x1="101.648" y1="69.8152" x2="220.292" y2="28.0416" gradientUnits="userSpaceOnUse">
<stop stop-color="#35CC79"/>
<stop offset="1" stop-color="#347D55" stop-opacity="0.65"/>
</linearGradient>
<linearGradient id="paint1_linear" x1="32.4533" y1="235.687" x2="403.703" y2="82.0512" gradientUnits="userSpaceOnUse">
<stop stop-color="#35CC79"/>
<stop offset="1" stop-color="#347D55" stop-opacity="0.65"/>
</linearGradient>
</defs>
</svg>
